<?xml version="1.0" encoding="UTF-8" standalone="no"?>
<svg
   xmlns="http://www.w3.org/2000/svg"
   width="106.64822mm"
   height="129.82996mm"
   viewBox="0 0 106.64822 129.82995"
   version="1.1">
  <title>Bong</title>
  <g
     transform="translate(-93.690592,-24.839917)">
    <path
       style="fill:#000000;stroke-width:0.254"
       d="m 140.17259,154.59159 c -4.58906,-0.79696 -11.7237,-5.29915 -16.49654,-10.40986 -8.04706,-8.61672 -11.08102,-17.85186 -9.37502,-28.53681 0.38335,-2.40098 1.64242,-6.67912 2.65019,-9.00499 0.70087,-1.61757 0.8114,-2.08128 0.55481,-2.32759 -0.64686,-0.62093 -13.192,-9.270939 -13.75751,-9.485945 -0.32131,-0.122162 -1.88711,-0.410538 -3.47956,-0.640835 -3.598928,-0.520471 -4.870078,-1.092413 -5.845168,-2.629974 -0.60578,-0.955203 -0.7332,-1.430708 -0.7332,-2.736116 0,-1.473932 0.0844,-1.705039 1.25807,-3.442772 3.16289,-4.683216 8.866138,-12.301116 9.731328,-12.998277 1.80187,-1.451915 4.80613,-1.156886 6.44865,0.633278 0.30087,0.327921 1.25116,1.880433 2.11175,3.450028 l 1.56471,2.853807 7.98035,5.591693 c 4.38919,3.07543 8.0531,5.591691 8.14202,5.591691 0.0889,0 0.81915,-0.399395 1.62273,-0.887545 0.80358,-0.488147 2.84177,-1.569252 4.52932,-2.402454 3.32402,-1.641187 4.66542,-2.680223 5.85654,-4.536419 1.56685,-2.441728 1.55593,-2.274837 1.54069,-23.532447 l -0.0138,-19.314135 -1.19266,-0.782574 c -5.0928,-3.341692 -4.58185,-10.792775 0.92557,-13.497361 l 1.43777,-0.706065 h 11.303 c 12.85197,0 12.7761,-0.01053 15.01503,2.08373 1.65452,1.54761 2.36749,3.250705 2.37083,5.66327 0.004,2.943747 -1.03544,4.858145 -3.60636,6.641565 l -1.0795,0.74884 0.002,18.593297 c 0.001,11.657455 0.10052,19.201008 0.26625,20.222421 0.63654,3.92316 2.4957,6.127821 7.00143,8.302577 5.86736,2.831968 10.28031,5.942335 13.97017,9.846569 6.77125,7.164643 9.88389,15.396623 9.41661,24.904053 -0.39987,8.13559 -3.13359,14.84339 -8.63017,21.17604 -3.94908,4.54963 -10.60345,9.30272 -15.42233,11.01581 l -1.651,0.58692 -16.891,0.0384 c -9.29005,0.0211 -17.17675,-0.0112 -17.526,-0.0718 z m 34.0534,-6.33591 c 4.17981,-1.2399 11.0783,-6.64505 14.67916,-11.50153 1.33375,-1.79883 3.30686,-5.42087 3.70997,-6.81038 l 0.1625,-0.56015 -9.78702,-0.0748 -9.78703,-0.0748 -0.67471,-0.67499 c -0.46583,-0.46603 -0.74085,-1.09347 -0.88839,-2.02676 -0.36451,-2.3059 -1.9353,-3.77525 -4.03588,-3.77525 -2.09926,0 -3.61985,1.42436 -4.06698,3.80962 -0.16893,0.90115 -0.48716,1.62204 -0.89701,2.032 l -0.63521,0.63538 -15.37027,0.127 -15.37027,0.127 0.73239,1.143 c 1.86106,2.90444 4.77209,5.5882 8.51134,7.84681 1.20168,0.72585 2.41778,1.61582 2.70244,1.97771 1.23581,1.57108 -0.0302,3.89148 -2.12321,3.89148 -0.59728,0 -4.54422,-2.24978 -6.37622,-3.63449 -3.97295,-3.00293 -7.38683,-7.38402 -9.09492,-11.67168 -0.89487,-2.24632 -0.88281,-3.07617 0.0584,-4.01737 l 0.74246,-0.74246 h 16.24103 16.24103 l 0.43816,-1.14732 c 0.62679,-1.64122 2.67132,-3.77195 4.40856,-4.59444 2.61607,-1.23858 5.83593,-1.10667 8.36291,0.3426 1.40657,0.80668 3.19774,2.81816 3.78833,4.25426 l 0.47005,1.14299 8.80823,10e-4 8.80822,0.001 0.18074,-1.44659 c 0.21654,-1.73331 -0.002,-6.00955 -0.40605,-7.95154 -0.78059,-3.75007 -1.92603,-6.53052 -3.91524,-9.50383 -3.56431,-5.32763 -8.10941,-9.031568 -16.0159,-13.051814 -4.07586,-2.072472 -5.68281,-3.360491 -7.38265,-5.91741 -1.45877,-2.194298 -2.34412,-4.661502 -2.66068,-7.414471 -0.1319,-1.147013 -0.24068,-10.276459 -0.24174,-20.287661 l -0.002,-18.202184 -4.0005,-0.08665 c -4.3978,-0.09525 -4.85356,-0.230963 -5.52457,-1.645015 -0.48588,-1.023905 -0.481,-1.708313 0.0197,-2.763454 0.70829,-1.492641 1.40888,-1.645514 7.541,-1.645514 5.13089,0 5.49126,-0.03099 6.12111,-0.526435 0.84966,-0.668342 0.86392,-1.587991 0.0374,-2.414471 l -0.63182,-0.631815 -10.18581,0.07186 -10.18583,0.07186 -0.48536,0.599639 c -0.26695,0.329802 -0.48537,0.820772 -0.48537,1.091046 0,0.71119 1.13316,1.738315 1.91777,1.738315 0.93874,0 2.04082,0.712136 2.52745,1.633164 0.37273,0.705469 0.40401,2.862937 0.32797,22.623836 -0.0786,20.419154 -0.11459,21.935097 -0.55219,23.240578 -0.95847,2.859339 -2.1683,4.836518 -4.2069,6.875115 -1.73874,1.738739 -2.3638,2.164532 -5.24845,3.575276 -1.80106,0.880808 -3.9156,1.979663 -4.69899,2.4419 l -1.42434,0.840428 -0.14651,1.747568 c -0.41581,4.959759 -3.90931,8.676699 -8.90168,9.471019 l -1.92803,0.30676 -0.77605,1.7356 c -2.94764,6.59226 -3.43563,14.41584 -1.28562,20.61117 1.58823,4.57652 5.52589,9.91754 10.01671,13.58662 3.14702,2.57116 7.02307,4.87392 8.98033,5.33521 0.52444,0.1236 8.04796,0.23621 16.71893,0.25024 13.80699,0.0224 15.93678,-0.0253 17.145,-0.38372 z M 159.72895,106.5176 c -2.83058,-0.86103 -4.22703,-2.90211 -4.01271,-5.86506 0.1942,-2.684815 2.10057,-4.576895 4.80886,-4.772795 2.80248,-0.202712 5.09309,1.331428 5.80976,3.891108 1.1108,3.967387 -2.75692,7.917557 -6.60591,6.746747 z m -34.53109,-5.85761 c 1.02128,-0.28373 2.36623,-1.557681 2.76716,-2.621107 0.63258,-1.677869 0.85326,-1.469119 -8.39518,-7.941084 -4.76561,-3.334929 -8.97981,-6.44573 -9.36488,-6.912895 -0.38508,-0.467164 -1.13436,-1.641523 -1.66507,-2.609687 -0.53071,-0.968164 -1.04982,-1.760299 -1.15359,-1.760299 -0.10376,0 -1.68849,2.085975 -3.52161,4.6355 -3.00547,4.180042 -3.27596,4.642538 -2.75302,4.707133 2.03907,0.251874 4.76619,0.935886 5.76292,1.445445 0.64185,0.328138 4.596,3.003195 8.787,5.944571 4.191,2.941378 7.8486,5.351233 8.128,5.355243 0.2794,0.004 0.91312,-0.10527 1.40827,-0.24282 z"
       />
  </g>
</svg>
