<?xml version="1.0" encoding="UTF-8" standalone="no"?>
<svg
   xmlns="http://www.w3.org/2000/svg"
   width="135.46666mm"
   height="135.39857mm"
   viewBox="0 0 135.46666 135.39857"
   version="1.1">
  <g
     transform="translate(-12.837981,16.230359)">
    <path
       style="fill:#000000;stroke-width:0.264583"
       d="m 79.416368,118.61984 -0.69714,-0.54837 v -8.0789 c 0,-6.36352 -0.07022,-8.04832 -0.330729,-7.9349 -5.717344,2.48913 -9.923838,3.84058 -14.551728,4.67514 -10.594372,1.91052 -20.817548,1.07649 -27.88325,-2.27476 -3.682969,-1.74683 -4.444922,-3.25311 -2.544187,-5.029525 2.439825,-2.28024 9.492617,-6.45193 13.37374,-7.910494 0.697976,-0.262308 1.174226,-0.557832 1.058333,-0.656722 -0.115895,-0.09889 -1.818063,-0.760741 -3.782594,-1.470777 C 35.769085,86.394386 28.612477,81.776899 21.95851,75.13128 17.590772,70.769023 12.837981,64.703064 12.837981,63.490802 c 0,-0.967909 0.757713,-1.705832 2.192691,-2.135423 1.957484,-0.58601 7.639434,-1.718413 8.622322,-1.718413 1.619342,0 2.471746,1.883701 1.421966,3.142358 -0.349702,0.419283 -1.175316,0.687999 -3.373438,1.097973 -1.600729,0.298556 -3.066837,0.596887 -3.258017,0.662961 -0.910255,0.314587 6.807387,8.621104 11.592392,12.476916 6.04771,4.873318 10.65218,7.168298 22.603334,11.266064 3.41385,1.170527 4.119581,1.646819 4.119581,2.780271 0,1.233166 -0.646171,1.843056 -2.317284,2.187166 -2.252337,0.46379 -5.835226,1.71198 -8.607128,2.99851 -2.482652,1.15227 -7.861004,4.363765 -7.861004,4.693915 0,0.25733 3.52865,1.4871 5.55625,1.93641 6.465541,1.43275 15.505416,1.13126 23.018749,-0.7677 4.626647,-1.16936 9.338746,-3.081465 12.478974,-5.063805 0.552342,-0.34868 1.226466,-0.63396 1.498053,-0.63396 0.271584,0 1.472263,0.58198 2.668174,1.29329 1.888824,1.12343 4.877702,2.431065 8.622506,3.772345 1.866773,0.66862 2.203206,2.74847 0.591579,3.65717 -0.624207,0.35196 -0.87072,0.33017 -2.624621,-0.232 -1.064639,-0.34125 -3.00727,-1.08899 -4.316958,-1.66166 -1.309687,-0.57267 -2.530078,-1.10608 -2.711979,-1.18536 -0.260508,-0.11355 -0.330729,1.57114 -0.330729,7.93474 v 8.0789 l -0.69714,0.54837 c -0.383426,0.3016 -0.90315,0.54837 -1.154943,0.54837 -0.251793,0 -0.771517,-0.24677 -1.154943,-0.54837 z m 23.331992,-11.07808 c -2.808508,-0.29477 -3.321781,-0.45639 -3.808545,-1.19929 -0.54687,-0.83463 -0.282496,-2.13177 0.544983,-2.67395 0.518952,-0.34003 1.019112,-0.35866 3.312332,-0.12333 4.9837,0.51143 11.31955,0.18715 15.12543,-0.77414 1.7613,-0.44487 4.98208,-1.62659 4.98208,-1.82795 0,-0.22555 -4.68285,-3.156165 -6.56314,-4.107335 -2.41548,-1.2219 -5.90567,-2.54411 -8.50386,-3.22155 -2.94681,-0.76835 -3.45383,-1.13928 -3.45383,-2.52674 0,-1.324512 0.18848,-1.435913 5.68854,-3.362206 2.47385,-0.866421 5.47856,-1.941203 6.67713,-2.388407 4.91891,-1.835325 10.22766,-4.925433 14.75412,-8.58806 4.02621,-3.257849 11.81383,-11.622166 11.29474,-12.131161 -0.10023,-0.09829 -2.08724,-0.511061 -4.41557,-0.917279 -3.89701,-0.679897 -4.76936,-0.738158 -10.98021,-0.733305 -5.98216,0.0047 -7.10674,0.07552 -9.92188,0.625057 -4.99156,0.974396 -5.24956,0.980233 -5.91533,0.133847 -0.78822,-1.00207 -0.72196,-1.413187 0.51469,-3.193388 3.28676,-4.731388 5.42997,-8.13812 7.01356,-11.148393 2.10319,-3.997965 2.33692,-4.299297 3.33491,-4.299297 0.91785,0 2.06363,1.045848 2.06363,1.883648 0,0.735844 -3.28888,7.051283 -5.20078,9.986745 -0.79278,1.217205 -1.38853,2.265992 -1.32388,2.330638 0.0646,0.06464 1.63887,-0.02551 3.49828,-0.200326 6.89518,-0.64829 15.8768,0.05343 22.76003,1.778201 3.07135,0.769606 4.07885,1.400981 4.07885,2.556115 0,1.304756 -4.68973,7.30192 -9.24898,11.827478 -6.88692,6.836018 -13.92489,11.308082 -22.75448,14.458637 l -3.56076,1.27054 1.04722,0.393427 c 3.95914,1.487399 11.23682,5.774169 13.68106,8.058539 1.27502,1.191615 1.34458,2.264855 0.21521,3.319855 -1.73709,1.62269 -6.81264,3.55492 -11.52614,4.38794 -2.74729,0.48553 -10.43237,0.71789 -13.40941,0.40544 z M 45.646313,63.991087 c -2.370796,-0.589844 -7.531217,-1.179121 -10.325799,-1.179121 -1.432385,0 -2.906417,-0.114851 -3.275628,-0.255225 -1.073502,-0.408144 -1.354603,-2.279827 -0.488182,-3.250504 0.342342,-0.383535 0.875274,-0.463021 3.104456,-0.463021 1.480141,0 3.971998,0.128908 5.537462,0.286462 1.565462,0.157554 2.900962,0.231793 2.96778,0.164978 0.06682,-0.06682 -0.605308,-1.237522 -1.49361,-2.601566 C 39.609278,53.52443 35.718986,45.624885 34.178096,41.474512 32.580986,37.172715 31.036109,31.715401 30.05994,26.927035 29.295801,23.178731 28.448397,17.24671 28.448397,15.645861 c 0,-0.930108 1.063993,-2.046393 1.950534,-2.046393 0.358419,0 2.239065,0.809802 4.179214,1.799564 11.500582,5.866981 22.6313,14.867997 30.071306,24.317596 l 1.502069,1.907786 0.172037,-7.067161 c 0.09462,-3.886938 0.364599,-8.555442 0.599956,-10.374452 0.64616,-4.994029 1.724766,-10.641856 2.160133,-11.310937 0.527954,-0.811376 2.25571,-0.831434 3.051717,-0.03543 0.621924,0.621925 0.626943,0.520065 -0.259265,5.260949 -1.418992,7.591083 -1.93742,15.570154 -1.615943,24.870832 0.224237,6.4874 0.146079,6.962285 -1.201565,7.300523 -1.328677,0.333478 -1.819543,-0.06037 -3.89459,-3.124864 -3.175034,-4.688977 -5.249714,-7.155381 -9.968619,-11.850803 -4.327747,-4.30621 -8.27179,-7.583199 -12.772288,-10.612109 -2.810225,-1.891326 -6.669895,-4.242313 -8.423959,-5.131165 l -1.304667,-0.661125 0.122985,0.728834 c 0.06764,0.40086 0.307081,1.859929 0.532089,3.242376 2.169318,13.328324 7.277097,25.931653 14.636659,36.115624 2.233195,3.090238 2.427311,3.613091 1.703023,4.587094 -0.629709,0.846812 -1.844157,0.975524 -4.04291,0.428485 z M 91.193585,49.704505 C 90.636169,48.995861 90.623313,48.298539 91.006728,39.568504 91.151111,36.280979 90.749429,28.414914 90.223826,24.237186 89.319666,17.050489 87.192437,8.0199426 84.664084,0.63488514 83.202425,-3.6344665 80.855436,-9.4192811 80.58495,-9.4192811 c -0.382897,0 -2.843244,6.1701937 -4.642082,11.6416657 -0.693717,2.110052 -1.442842,4.044818 -1.664727,4.299479 -0.55364,0.635425 -2.037408,0.599111 -2.702663,-0.06615 -0.291042,-0.291042 -0.529167,-0.878599 -0.529167,-1.305681 0,-1.699312 3.693144,-11.7976319 6.409889,-17.5268326 1.298376,-2.738078 1.730673,-3.412399 2.352868,-3.67012 0.590483,-0.244586 0.934003,-0.244586 1.524486,0 1.831692,0.758712 7.322955,14.5785437 10.045223,25.2807576 2.321576,9.1269484 3.231843,15.8122834 3.450077,25.3386504 l 0.162248,7.082401 1.374108,-1.790734 c 5.58312,-7.275909 14.24398,-14.87584 23.71162,-20.80701 3.71454,-2.327039 9.83295,-5.457682 10.66629,-5.457682 0.91033,0 1.9511,1.115438 1.9511,2.091089 0,3.01878 -1.70164,12.48374 -3.19163,17.75266 -1.73564,6.137582 -2.10521,6.879167 -3.42827,6.879167 -0.94001,0 -2.11134,-0.939052 -2.11134,-1.692654 0,-0.32775 0.30149,-1.479968 0.66998,-2.560484 0.89105,-2.612823 2.64629,-9.810585 3.15669,-12.944778 0.22513,-1.382448 0.47642,-2.91524 0.55842,-3.406204 l 0.14909,-0.892661 -1.93636,1.046379 c -12.22988,6.608828 -23.59029,16.767473 -30.710596,27.46186 -0.871987,1.309687 -1.772185,2.530078 -2.000441,2.711979 -0.724648,0.577487 -2.069367,0.40469 -2.656178,-0.341316 z"
       />
  </g>
</svg>
