<?xml version="1.0" encoding="UTF-8" standalone="no"?>
<svg
   xmlns="http://www.w3.org/2000/svg"
   width="135.44896mm"
   height="135.44896mm"
   viewBox="0 0 135.44896 135.44896"
   version="1.1">
  <g
     transform="translate(-280.50119,9.9676152)">
    <path
       style="fill:#000000;stroke-width:0.264583"
       d="m 299.54434,125.2868 c -1.33758,-0.42593 -3.5902,-2.72057 -3.94381,-4.01737 -0.20409,-0.74842 -0.28902,-17.2668 -0.29007,-56.409316 l -10e-4,-55.3509844 8.97489,-0.07922 8.97489,-0.07922 0.6824,-0.641433 c 0.88249,-0.829513 0.89561,-1.947535 0.033,-2.810177 l -0.64944,-0.649432 h -9.00785 -9.00786 v -1.322916 -1.322917 h 52.91666 52.91666 v 1.322917 1.322916 l -39.88593,0.0084 c -30.93654,0.0065 -39.98013,0.08073 -40.30574,0.330729 -1.13151,0.868746 -1.21736,2.349699 -0.19011,3.279405 0.51024,0.461792 2.24605,0.485475 40.45745,0.552003 l 39.92433,0.06951 -0.002,55.3606944 c -10e-4,38.758361 -0.087,55.668731 -0.28667,56.387831 -0.40224,1.44867 -2.36844,3.46684 -3.87903,3.98155 -1.09077,0.37166 -6.22221,0.41244 -48.86277,0.38826 -34.16504,-0.0194 -47.90542,-0.11025 -48.56803,-0.32124 z m 44.9418,-11.77795 c 2.8102,-3.54816 5.02397,-10.26378 5.54451,-16.819609 0.1053,-1.32619 0.30733,-2.3843 0.44984,-2.35608 0.14229,0.0282 1.3898,0.65768 2.77224,1.39889 3.8047,2.03994 7.39256,3.62921 9.56032,4.23483 2.57633,0.719759 6.76556,0.939539 10.68031,0.560329 5.07242,-0.49136 6.48524,-0.797239 7.18883,-1.556429 0.71579,-0.77235 0.81036,-2.0452 0.21508,-2.89508 -0.48587,-0.69368 -3.64672,-2.93038 -6.83662,-4.8378 l -2.34313,-1.40107 1.41709,-0.59811 c 3.06605,-1.29409 7.04455,-3.84485 11.25008,-7.21283 4.32645,-3.46481 5.11596,-4.29843 5.11596,-5.401747 0,-1.316227 -0.21055,-1.747557 -1.07003,-2.192006 -1.00716,-0.520825 -6.71325,-1.016484 -9.69414,-0.842082 l -2.4298,0.142158 1.56148,-2.105966 c 2.12709,-2.868801 4.19555,-6.591607 6.09947,-10.977819 1.82013,-4.193154 4.47468,-11.735437 4.47468,-12.713745 0,-0.948113 -1.34751,-2.203791 -2.36496,-2.203791 -1.20928,0 -8.26815,3.600106 -13.90691,7.092677 -3.4221,2.119606 -7.93199,5.533895 -9.89502,7.491201 l -1.69294,1.687996 0.16213,-0.926041 c 1.8733,-10.699747 -0.36774,-22.034615 -6.9574,-35.189582 -2.91879,-5.826807 -4.10607,-7.408333 -5.56156,-7.408333 -1.45549,0 -2.64277,1.581526 -5.56156,7.408333 -6.59948,13.174569 -8.83181,24.460442 -6.95641,35.169156 l 0.1586,0.905613 -1.82396,-1.782521 c -4.08539,-3.992573 -10.92547,-8.480803 -19.34883,-12.696042 -2.05231,-1.027025 -3.84051,-1.752457 -4.31983,-1.752457 -1.01716,0 -2.36467,1.255834 -2.36467,2.203791 0,0.966716 2.73386,8.757243 4.48556,12.782222 1.83797,4.223213 3.98959,8.07843 6.08859,10.909342 l 1.56148,2.105966 -2.4298,-0.142158 c -2.98089,-0.174402 -8.68698,0.321257 -9.69414,0.842082 -0.85757,0.443463 -1.07003,0.87617 -1.07003,2.179256 0,1.046777 0.33237,1.418797 4.07952,4.566157 4.07262,3.42072 9.27793,6.84292 12.28651,8.0777 l 1.41707,0.58159 -2.34311,1.40178 c -3.08811,1.84748 -6.64331,4.41106 -6.97387,5.02871 -0.44998,0.8408 -0.29879,2.00087 0.35234,2.70345 0.70359,0.75919 2.11641,1.065069 7.18883,1.556429 3.90007,0.37779 8.10211,0.15997 10.65054,-0.552079 2.23699,-0.62504 5.97943,-2.28148 9.72238,-4.30323 l 2.64583,-1.42915 0.0912,0.81334 c 0.13173,1.17425 -0.44855,5.189689 -1.15445,7.988539 -0.66941,2.65423 -2.00711,5.75881 -3.27599,7.60306 -1.42461,2.07061 -0.93538,3.87487 1.05069,3.87487 0.83754,0 1.1222,-0.1605 1.79796,-1.01371 z M 295.31046,-2.8862924 c 8.2e-4,-0.836745 0.13134,-1.997604 0.29007,-2.579687 0.37963,-1.392221 2.61946,-3.596946 4.10478,-4.04045 0.84371,-0.251924 11.78489,-0.325175 48.57005,-0.325175 53.52916,0 48.96628,-0.1875036 51.10608,2.100119 1.32993,1.421798 1.75722,2.598517 1.7594,4.845193 l 10e-4,1.521354 h -52.91666 -52.91666 l 0.001,-1.521354 z"
       />
  </g>
</svg>
