<?xml version="1.0" encoding="UTF-8" standalone="no"?>
<svg
   xmlns="http://www.w3.org/2000/svg"
   width="105.86169mm"
   height="135.44527mm"
   viewBox="0 0 105.86169 135.44527"
   version="1.1">
  <g
     transform="translate(-262.65071,-43.337947)">
    <path
       style="fill:#000000;stroke-width:0.264583"
       d="m 266.90083,178.45635 c -1.33758,-0.42593 -3.5902,-2.72056 -3.94381,-4.01737 -0.40842,-1.49778 -0.40842,-125.237629 0,-126.735408 0.37963,-1.392221 2.61946,-3.596946 4.10478,-4.04045 0.84371,-0.251924 11.78489,-0.325175 48.57005,-0.325175 42.44625,0 47.61026,0.04404 48.69978,0.415274 1.51059,0.514707 3.47679,2.53288 3.87903,3.98155 0.40232,1.448976 0.40232,125.224039 0,126.673009 -0.40224,1.44867 -2.36844,3.46685 -3.87903,3.98155 -1.09077,0.37167 -6.22221,0.41244 -48.86277,0.38827 -34.16504,-0.0194 -47.90542,-0.11026 -48.56803,-0.32125 z m 96.85583,-4.39389 0.77339,-0.7734 V 117.8385 62.387946 h -37.9677 c -37.61493,0 -37.97262,-0.0049 -38.49688,-0.529167 -0.78783,-0.787839 -0.70555,-2.204093 0.16798,-2.891213 l 0.69714,-0.54837 h 37.79973 37.79973 V 57.09628 55.773363 h -48.94791 -48.94791 v 1.322917 1.322916 h 6.73442 c 7.13999,0 7.8008,0.0979 8.31765,1.232251 0.43487,0.954429 0.36459,1.366803 -0.35567,2.087067 l -0.64944,0.649432 h -7.02348 -7.02348 v 55.450554 55.45056 l 0.77339,0.7734 0.7734,0.7734 h 47.40112 47.40112 z m -55.05369,-6.89952 c -0.71607,-0.71607 -0.67485,-2.00801 0.0963,-3.01908 2.3604,-3.09465 4.66139,-10.68821 4.6651,-15.39546 l 0.001,-1.34891 -4.82865,2.42238 c -5.48327,2.75078 -7.33285,3.42069 -10.67448,3.86626 -3.56446,0.47528 -12.98833,-0.26033 -14.36724,-1.12147 -1.05735,-0.66033 -1.39266,-2.31049 -0.67707,-3.33214 0.38198,-0.54534 6.37362,-4.64973 8.30817,-5.69125 l 0.87045,-0.46863 -2.6109,-1.27684 c -4.08597,-1.99821 -9.7926,-6.06326 -13.92184,-9.91705 -1.08549,-1.01308 -1.25563,-1.31206 -1.24836,-2.1938 0.009,-1.10741 0.33877,-1.69313 1.21571,-2.16013 0.8259,-0.43981 7.57326,-0.91634 9.9752,-0.70449 l 2.07119,0.18268 -1.59174,-2.14678 c -2.80611,-3.78461 -4.99466,-7.9982 -7.57323,-14.5807 -2.06951,-5.28296 -3.10116,-8.677 -2.90666,-9.56259 0.20911,-0.952071 1.29397,-1.814491 2.28248,-1.814491 0.91573,0 7.44461,3.282161 12.26135,6.163961 4.76404,2.85028 8.02273,5.21964 10.80874,7.85895 l 2.37396,2.24896 -0.16885,-1.05551 c -1.40834,-8.80403 -0.45624,-16.514381 3.30017,-26.72574 2.03781,-5.539523 6.45708,-14.138981 7.81492,-15.207061 0.86608,-0.681258 1.93835,-0.683046 2.80076,-0.0047 1.79483,1.411812 6.63931,11.403317 8.91498,18.386731 2.79692,8.582979 3.4491,15.55284 2.20339,23.54791 l -0.1649,1.05834 2.37331,-2.24896 c 2.76441,-2.61956 6.04102,-5.0069 10.68598,-7.7858 4.81544,-2.88089 11.47618,-6.237101 12.37817,-6.237101 0.99324,0 2.07826,0.86055 2.28778,1.814491 0.1945,0.88559 -0.83715,4.27963 -2.90666,9.56259 -2.57857,6.5825 -4.76712,10.79609 -7.57323,14.5807 l -1.59175,2.14678 2.0712,-0.18268 c 2.40194,-0.21185 9.1493,0.26468 9.97519,0.70449 0.87694,0.467 1.20659,1.05272 1.21571,2.16013 0.007,0.88127 -0.16344,1.18174 -1.24835,2.19725 -4.15741,3.89147 -9.67351,7.81649 -13.92185,9.90618 l -2.6109,1.28426 0.87045,0.46863 c 1.93456,1.04152 7.9262,5.14591 8.30817,5.69125 0.71559,1.02165 0.38029,2.67181 -0.67707,3.33214 -1.3789,0.86114 -10.80278,1.59675 -14.36723,1.12147 -3.32813,-0.44377 -5.18446,-1.11618 -10.60834,-3.84265 -2.61938,-1.31669 -4.8518,-2.43368 -4.96094,-2.48219 -0.10914,-0.0485 -0.19914,0.5468 -0.2,1.32292 -0.004,3.33001 -1.13161,8.6921 -2.66458,12.66723 -0.89002,2.3079 -3.1055,5.89707 -3.806,6.16587 -0.83,0.3185 -1.7255,0.17724 -2.25911,-0.35637 z m -8.33437,-17.99052 c 2.50369,-0.79347 6.64027,-2.7648 11.13045,-5.30434 2.04716,-1.15782 3.88455,-2.10514 4.08309,-2.10514 0.19854,0 2.03593,0.94732 4.08309,2.10514 4.51055,2.55106 8.64036,4.5171 11.13045,5.29877 2.15609,0.67682 6.35996,0.9496 9.39271,0.60948 l 1.98437,-0.22255 -1.19062,-0.77724 c -2.24075,-1.46275 -6.50478,-3.51149 -8.00915,-3.84815 -0.82692,-0.18506 -1.74439,-0.56091 -2.03883,-0.83522 -0.67661,-0.63036 -0.71065,-2.08958 -0.0624,-2.6762 0.26011,-0.2354 1.89722,-0.79306 3.63802,-1.23924 1.7408,-0.44618 4.03753,-1.22305 5.10384,-1.72638 3.84869,-1.81669 11.28111,-7.128 10.58867,-7.56682 -0.81527,-0.51667 -7.5626,-0.0618 -10.6086,0.71511 -1.3538,0.34531 -1.60758,0.34302 -2.31128,-0.0209 -0.99339,-0.5137 -1.26872,-1.5036 -0.72589,-2.60988 0.22453,-0.45759 1.45038,-1.96307 2.72412,-3.34552 2.65935,-2.88631 4.89287,-6.14583 6.77361,-9.88516 1.86765,-3.71331 4.93014,-11.28151 4.56509,-11.28151 -0.31739,0 -4.74787,2.34993 -7.12363,3.77836 -7.14264,4.29455 -10.55337,7.09678 -14.22973,11.69104 -3.20958,4.01093 -3.86315,4.63894 -4.82784,4.63894 -0.54294,0 -1.04296,-0.2307 -1.45832,-0.67284 l -0.6321,-0.67283 0.8642,-4.27947 c 1.40757,-6.97027 1.79633,-11.1842 1.41637,-15.35273 -0.54316,-5.959101 -2.14079,-11.850767 -5.00169,-18.445048 -1.47556,-3.401124 -3.79132,-7.9375 -4.05199,-7.9375 -0.24867,0 -3.05634,5.532498 -4.29672,8.466666 -2.65341,6.276732 -4.22069,12.198331 -4.74184,17.915882 -0.37923,4.16058 0.0128,8.42257 1.41573,15.38995 l 0.85606,4.25159 -0.6277,0.66816 c -0.41134,0.43785 -0.91251,0.66817 -1.45394,0.66817 -0.96383,0 -1.61524,-0.62541 -4.82271,-4.63021 -3.51504,-4.38883 -6.66347,-7.06333 -12.69927,-10.78766 -2.65452,-1.63794 -8.24205,-4.69047 -8.58573,-4.69047 -0.45103,0 2.25989,6.8331 4.40871,11.1125 1.95734,3.89807 4.15883,7.12628 6.8565,10.05417 1.27374,1.38245 2.49959,2.88793 2.72412,3.34552 0.54283,1.10628 0.2675,2.09618 -0.72589,2.60989 -0.71031,0.36731 -0.94816,0.36792 -2.34476,0.006 -2.949,-0.76417 -9.75864,-1.21784 -10.5689,-0.70412 -0.41653,0.26409 1.59569,1.93142 5.64203,4.675 3.57562,2.42442 6.27699,3.66578 10.02301,4.60587 1.72912,0.43393 3.36623,0.99022 3.63802,1.23619 0.66907,0.6055 0.64694,2.05435 -0.0412,2.69543 -0.29444,0.27431 -1.21191,0.65016 -2.03883,0.83522 -1.51628,0.33932 -5.8084,2.40541 -8.00915,3.85534 l -1.19062,0.78442 1.4552,0.17167 c 2.94015,0.34685 7.93912,0.061 9.92188,-0.5674 z m 64.16145,-98.843368 c 0,-1.278105 -0.10349,-1.579054 -0.77339,-2.248958 l -0.7734,-0.773397 h -47.40112 -47.40112 l -0.7734,0.773397 c -0.6699,0.669904 -0.77339,0.970853 -0.77339,2.248958 v 1.475561 h 48.94791 48.94791 z"
       />
  </g>
</svg>
