<?xml version="1.0" encoding="UTF-8" standalone="no"?>
<svg
   xmlns="http://www.w3.org/2000/svg"
   version="1.1"
   id="svg4953"
   width="503.60938"
   height="511.43887"
   viewBox="0 0 503.60938 511.43887">
  <g
     transform="translate(52.029468,43.796496)">
    <path
       style="fill:#000000"
       d="m 196.08029,466.50655 c -3.91246,-1.8903 -4.30276,-5.56086 -4.30276,-40.46485 v -33.36334 l -6.75,3.38766 c -46.62708,23.401 -117.238382,26.82569 -155.444792,7.53915 -9.79792,-4.94597 -9.75647,-5.03199 8.16197,-16.93543 14.16524,-9.41014 25.85796,-15.15669 42.53282,-20.90331 8.51435,-2.93428 14.11399,-5.39326 14.29092,-6.27558 0.21191,-1.05682 -5.62651,-3.56612 -21.5,-9.24052 -26.1973,-9.36491 -40.07119,-15.92697 -55.90416,-26.44151 -15.4446199,-10.25663 -28.12672,-20.96132 -42.5072,-35.87943 -12.9565,-13.44088 -27.14756,-31.57534 -26.67507,-34.08751 0.92402,-4.9129 52.51168009,-11.92553 79.43777,-10.79847 13.24767,0.55452 32.05014,2.75757 38.85774,4.55289 3.36462,0.88733 5.5,0.45877 5.5,-1.10382 0,-0.57439 -2.19435,-4.02439 -4.87634,-7.66667 C 39.847768,202.08594 19.184138,151.10553 10.311308,99.209764 6.7509581,78.385894 6.1648181,70.875854 8.0436381,70.154884 11.008098,69.017314 42.649868,86.998174 62.020228,100.8278 c 33.03739,23.58734 64.354692,54.74417 82.588832,82.16565 7.45723,11.21458 7.41475,11.37461 7.64202,-28.78995 0.14632,-25.86004 0.63452,-38.39484 1.86947,-48 5.57718,-43.377976 15.26764,-81.111602 30.81749,-119.999996 7.89353,-19.740823 12.96823,-30 14.83949,-30 1.87916,0 6.04988,8.461577 14.04769,28.5 24.4526,61.2657 35.38855,120.933876 33.49431,182.749996 -0.65955,21.52346 -0.61901,22.25 1.24138,22.25 1.26242,0 3.47201,-2.31917 6.43106,-6.75 18.45795,-27.63854 48.516,-57.71087 80.88635,-80.92477 20.53911,-14.729306 52.53709,-33.061896 55.6331,-31.873846 1.81123,0.69503 1.30068,8.10244 -1.8282,26.52511 -9.08407,53.486446 -28.72787,102.876426 -55.87116,140.475676 -3.31899,4.59751 -6.03453,8.81407 -6.03453,9.37014 0,1.531 2.1598,1.95138 5.5,1.07049 14.26745,-3.76266 46.65309,-5.71458 66,-3.9779 24.11493,2.16468 51.24886,7.26707 52.22905,9.82139 1.80189,4.69565 -30.00221,40.15738 -51.66658,57.6085 -21.50866,17.3257 -38.04453,26.18382 -72.06247,38.60323 -15.08625,5.50775 -23.5,9.07093 -23.5,9.95212 0,0.86447 3.84177,2.58783 10.37706,4.65499 16.84053,5.32681 46.26226,20.8976 59.02903,31.23981 3.34915,2.7131 2.25965,4.58781 -4.7113,8.10673 -29.61052,14.94734 -78.03216,16.74339 -123.1796,4.56895 -10.6854,-2.88142 -24.92077,-8.30454 -32.76519,-12.48226 l -5.25,-2.796 v 33.2546 c 0,20.64184 -0.39816,34.39675 -1.04978,36.26598 -0.98393,2.82252 -4.52474,5.37255 -7.24727,5.21938 -0.66162,-0.0372 -2.19171,-0.5454 -3.40019,-1.12927 z"
       />
  </g>
</svg>
