<?xml version="1.0" encoding="UTF-8" standalone="no"?>
<svg
   xmlns="http://www.w3.org/2000/svg"
   width="105.86169mm"
   height="135.44527mm"
   viewBox="0 0 105.86169 135.44527"
   version="1.1">
  <g transform="translate(-262.65071,-43.337947)">
    <path
       style="fill:#000000;stroke-width:0.264583"
       d="m 266.90083,178.45635 c -1.33758,-0.42593 -3.5902,-2.72056 -3.94381,-4.01737 -0.40842,-1.49778 -0.40842,-125.237629 0,-126.735408 0.37963,-1.392221 2.61946,-3.596946 4.10478,-4.04045 0.84371,-0.251924 11.78489,-0.325175 48.57005,-0.325175 42.44625,0 47.61026,0.04404 48.69978,0.415274 1.51059,0.514707 3.47679,2.53288 3.87903,3.98155 0.40232,1.448976 0.40232,125.224039 0,126.673009 -0.40224,1.44867 -2.36844,3.46685 -3.87903,3.98155 -1.09077,0.37167 -6.22221,0.41244 -48.86277,0.38827 -34.16504,-0.0194 -47.90542,-0.11026 -48.56803,-0.32125 z m 96.85583,-4.39389 0.77339,-0.7734 V 117.8385 62.387946 h -37.9677 c -37.61493,0 -37.97262,-0.0049 -38.49688,-0.529167 -0.78783,-0.787839 -0.70555,-2.204093 0.16798,-2.891213 l 0.69714,-0.54837 h 37.79973 37.79973 V 57.09628 55.773363 h -48.94791 -48.94791 v 1.322917 1.322916 h 6.73442 c 7.13999,0 7.8008,0.0979 8.31765,1.232251 0.43487,0.954429 0.36459,1.366803 -0.35567,2.087067 l -0.64944,0.649432 h -7.02348 -7.02348 v 55.450554 55.45056 l 0.77339,0.7734 0.7734,0.7734 h 47.40112 47.40112 z m 0.77339,-123.733408 c 0,-1.278105 -0.10349,-1.579054 -0.77339,-2.248958 l -0.7734,-0.773397 h -47.40112 -47.40112 l -0.7734,0.773397 c -0.6699,0.669904 -0.77339,0.970853 -0.77339,2.248958 v 1.475561 h 48.94791 48.94791 z"
        />
  </g>
</svg>
