<?xml version="1.0" encoding="UTF-8" standalone="no"?>
<svg
   xmlns="http://www.w3.org/2000/svg"
   width="135.46759mm"
   height="111.76648mm"
   viewBox="0 0 135.46759 111.76648"
   version="1.1">
  <g transform="translate(241.29581,112.96239)">
    <path
       style="fill:#000000;stroke-width:0.264583"
       d="m -221.05519,-5.4292406 -4.22713,-4.233333 h -8.00674 -8.00675 v -6.2177084 -6.217708 h 5.29167 5.29166 v -19.182291 -19.182291 h 14.81667 14.81666 v -19.049999 -19.050001 h 19.05 19.05 v 1.98438 1.98437 h -17.06562 -17.06563 v 4.36563 4.365621 h 11.77396 11.77396 v 1.984375 1.984375 h -11.77396 -11.77396 v 10.715625 10.715624 h 23.54792 23.54792 v -3.704166 c 0,-2.037292 -0.1026,-3.704167 -0.22799,-3.704167 -0.12539,0 -0.99275,0.346758 -1.92746,0.770575 -2.03417,0.92234 -5.71824,2.027269 -5.95844,1.787065 -0.32017,-0.320167 0.99101,-4.267758 2.29953,-6.923265 0.71707,-1.455208 1.96363,-3.509036 2.77013,-4.564062 l 1.46637,-1.918229 h -1.7492 c -3.56091,0 -8.91085,-1.449469 -12.84315,-3.479625 -3.27906,-1.692899 -3.25901,-1.495071 -0.30885,-3.04772 3.94283,-2.075092 7.60218,-3.164746 12.31838,-3.668056 l 1.52786,-0.16305 -0.8664,-1.04824 c -3.87128,-4.68377 -5.47982,-7.48746 -7.06611,-12.316258 -0.56593,-1.72274 -0.99324,-3.16871 -0.94959,-3.21327 0.14103,-0.14395 4.45545,1.18496 6.09096,1.87611 2.98178,1.26006 6.56138,3.51402 9.11865,5.741708 l 0.91657,0.79844 -1.4269,1.44486 -1.42691,1.44485 -1.14291,-1.05349 c -1.16466,-1.07355 -4.99702,-3.68917 -5.40529,-3.68917 -0.12372,0 0.33238,0.91798 1.01355,2.03997 1.37436,2.26374 4.26175,5.4529 6.29074,6.94817 1.56974,1.15683 3.81947,2.494118 3.9598,2.353791 0.0547,-0.05469 -0.14902,-1.051421 -0.45269,-2.214961 -0.84211,-3.22661 -0.82588,-9.93935 0.032,-13.228018 0.98843,-3.7892 3.63313,-9.70596 4.36678,-9.76943 0.39746,-0.0344 2.78596,4.88319 3.58848,7.38818 0.78758,2.45832 1.17568,4.35051 1.47934,7.212438 l 0.17573,1.65618 1.4767,-1.34963 c 3.27136,-2.989828 8.14569,-5.683708 12.6063,-6.967058 1.29887,-0.3737 2.39912,-0.64191 2.44501,-0.59602 0.20506,0.20506 -1.37575,5.01384 -2.29678,6.986718 -1.28892,2.76094 -3.47826,6.11956 -5.24496,8.0462 l -1.37098,1.49509 1.65619,0.17572 c 2.86193,0.30366 4.75411,0.691767 7.21243,1.479339 2.51848,0.80685 7.26287,3.111437 7.31859,3.555005 0.0455,0.362138 -2.13625,1.62755 -4.66648,2.706576 -2.86832,1.223201 -6.64948,2.169697 -9.46653,2.369659 l -2.33852,0.165992 0.0786,-1.958729 0.0786,-1.958729 1.91358,-0.170934 c 1.93587,-0.172924 4.40668,-0.666996 5.0541,-1.01064 0.73854,-0.392004 -4.00654,-1.178231 -7.09998,-1.176414 -2.92228,0.0016 -7.14375,0.679953 -7.14375,1.147741 0,0.105516 0.88423,0.751981 1.96495,1.43659 3.50022,2.217303 6.72819,5.910006 8.82227,10.092406 0.85325,1.704174 2.52251,6.754516 2.30455,6.972467 -0.0725,0.07255 -1.23217,-0.196805 -2.57694,-0.598567 -5.22347,-1.560558 -10.07722,-4.701754 -13.1105,-8.484703 l -0.84391,-1.052473 v 5.351952 5.351949 h -1.98437 -1.98438 v -5.31114 -5.311139 l -2.24655,2.334577 -2.24654,2.334577 -0.002,5.093229 -0.002,5.093229 h 14.81666 14.81667 v 19.182291 19.182291 h 5.29166 5.29167 v 6.217708 6.2177084 h -8.00675 -8.00674 l -4.22713,4.233333 -4.22714,4.233333 h -43.26557 -43.26558 z m 91.41354,-1.984375 2.23728,-2.248958 h -46.15811 -46.15811 l 2.23728,2.248958 2.23727,2.248958 h 41.68356 41.68356 z m 19.84375,-8.4666664 v -2.248959 h -63.76458 -63.76458 v 2.248959 2.248958 h 63.76458 63.76458 z m -61.51562,-23.415624 V -56.36153 h -2.24896 -2.24896 l -0.0691,10.649478 -0.0691,10.649479 h -1.84253 -1.84253 l -0.0727,-4.299479 -0.0727,-4.299479 h -23.41562 -23.41563 l -0.0691,10.78299 -0.0691,10.78299 27.71808,-0.06736 27.71807,-0.06737 z m -8.54394,10.649478 0.0773,-2.05052 1.91823,-0.07774 1.91823,-0.07774 v 2.128258 2.128258 h -1.9955 -1.99551 z m -33.92168,-4.156058 v -1.995504 h 2.12825 2.12826 l -0.0777,1.918229 -0.0777,1.918229 -2.05052,0.07728 -2.05052,0.07728 z m 8.46666,0 v -1.995504 h 2.12826 2.12826 l -0.0777,1.918229 -0.0777,1.918229 -2.05052,0.07728 -2.05052,0.07728 z m 8.46667,-0.01114 v -1.984375 h 2.11666 2.11667 v 1.984375 1.984374 h -2.11667 -2.11666 z m 76.4014,-0.06614 -0.0691,-10.78177 h -23.41563 -23.41562 l -0.0693,10.450507 c -0.0381,5.747776 -0.0121,10.599573 0.0578,10.78177 0.10048,0.261845 5.03638,0.331264 23.55402,0.331264 h 23.42689 z m -34.06807,0.06615 v -1.984375 h 2.11667 2.11666 v 1.984375 1.984375 h -2.11666 -2.11667 z m 8.64306,1.807985 c -0.097,-0.09701 -0.17639,-0.989981 -0.17639,-1.984375 v -1.807985 h 2.11666 2.11667 v 1.984375 1.984375 h -1.94028 c -1.06715,0 -2.01965,-0.07937 -2.11666,-0.17639 z m 8.46666,0 c -0.097,-0.09701 -0.17639,-0.989981 -0.17639,-1.984375 v -1.807985 h 2.11667 2.11666 v 1.984375 1.984375 h -1.94027 c -1.06716,0 -2.01966,-0.07937 -2.11667,-0.17639 z m -42.37743,-20.990276 v -4.365624 l -23.48177,-0.06758 -23.48177,-0.06758 v 4.500776 4.500777 l 23.48177,-0.06758 23.48177,-0.06757 z m 59.39896,-0.0013 v -4.499347 l -23.48177,0.06758 -23.48177,0.06757 -0.0733,4.089932 c -0.0403,2.249464 -0.0143,4.24376 0.0578,4.431771 0.10584,0.275727 4.65404,0.341733 23.5551,0.341733 h 23.42393 v -4.499345 z m -27.87772,-22.173495 c 1.49894,-1.232638 3.59487,-3.704031 4.37066,-5.153609 0.24408,-0.456068 0.21516,-0.461547 -0.48598,-0.09209 -2.09378,1.103286 -5.40897,4.41584 -6.80132,6.795907 l -0.49957,0.853959 0.85382,-0.499571 c 0.4696,-0.274761 1.62268,-1.131829 2.56239,-1.904596 z m 19.80168,0.947386 c -1.11298,-1.687632 -3.76339,-4.363402 -5.48386,-5.536343 -0.83674,-0.570454 -1.52135,-0.92679 -1.52135,-0.791855 0,0.426373 2.26423,3.296563 3.60567,4.570626 1.42188,1.35046 3.86712,3.164994 4.03665,2.995467 0.0594,-0.05942 -0.22728,-0.616474 -0.63711,-1.237895 z m -19.27049,-9.887354 c 1.14335,-0.232717 2.18095,-0.519396 2.30578,-0.637067 0.46979,-0.442841 -3.88485,-1.172091 -6.97383,-1.167873 -3.39016,0.0046 -7.59522,0.763746 -6.7746,1.222986 1.698,0.950254 8.0468,1.27314 11.44265,0.581954 z m 14.70293,-6.111412 c 3.24996,-2.13568 6.59083,-5.78821 8.2538,-9.02381 l 0.44919,-0.87397 -0.87397,0.44919 c -3.23559,1.66298 -6.88813,5.00384 -9.02381,8.25381 -0.69682,1.06038 -1.34173,2.122851 -1.43313,2.361037 -0.23099,0.601948 0.28696,0.372083 2.62792,-1.166257 z m -5.53119,-7.09151 c 0.0363,-3.2546 -0.72525,-8.007978 -1.15876,-7.232268 -0.10852,0.19421 -0.38678,1.27082 -0.61834,2.39247 -0.69142,3.349088 -0.50007,8.180938 0.43789,11.057508 l 0.30195,0.92604 0.50091,-1.98437 c 0.33681,-1.33429 0.51252,-3.02452 0.53635,-5.15938 z m -45.58979,25.135418 v -1.984375 h 2.11666 2.11667 v 1.984375 1.984375 h -2.11667 -2.11666 z m 8.46666,0 v -1.984375 h 2.11667 2.11667 v 1.984375 1.984375 h -2.11667 -2.11667 z m 8.46667,0 v -1.984375 h 2.11667 2.11666 v 1.984375 1.984375 h -2.11666 -2.11667 z"
       />
  </g>
</svg>
