<?xml version="1.0" encoding="UTF-8" standalone="no"?>
<svg
   xmlns="http://www.w3.org/2000/svg"
   width="240mm"
   height="240mm"
   viewBox="0 0 240.00001 239.99999"
   version="1.1">
  <g transform="translate(346.79504,211.2982)">
    <path
       style="fill:none;stroke:#040404;stroke-width:8.51958;stroke-linecap:round;stroke-linejoin:round;stroke-miterlimit:4;stroke-dasharray:none"
       d="m -231.61787,-163.66318 c -1.6523,-11.11058 1.08126,-21.44305 4.34148,-30.71051 1.52629,-3.43515 6.52273,-14.54462 10.40441,-12.41113 2.68645,1.60057 5.49177,5.63611 7.12022,9.45505 5.64544,12.00478 5.33192,17.37819 5.06605,29.06827 -0.0444,2.65357 -0.56852,3.35744 0.20032,4.04096 12.18383,-0.57079 21.70163,-18.15283 31.80034,-14.79521 0.34268,10.9367 -8.2448,20.83858 -13.50844,28.42897 m -63.54093,0 c -3.14036,-6.41734 -7.15621,-11.72269 -10.07184,-19.05623 -0.58406,-1.47095 -3.76779,-9.73645 -2.12774,-10.61133 2.94281,-0.48138 5.69763,1.67358 8.43042,3.15839 6.91353,4.06613 15.83313,11.92264 21.88565,13.43277 m -18.11649,13.0764 c -2.22691,1.68986 -12.97252,-0.0233 -14.00231,2.10735 -0.56139,2.76947 2.51669,5.00474 4.20027,6.25278 4.19855,2.62558 12.26717,8.61157 16.10702,9.76131 m 57.23595,-18.12144 c 3.71494,1.84067 13.33328,-0.1032 14.09491,2.39646 0.37974,9.39011 -17.82855,9.79947 -19.22927,15.73488 0.4856,5.4936 10.61656,6.29323 8.47605,10.08546 -2.06275,1.77471 -5.63544,1.4007 -8.36635,1.40544 -9.34503,0.49959 -14.6637,-4.19629 -22.33486,-7.39837 -7.49687,-3.10408 -14.26355,3.03523 -20.36407,5.68918 -3.38443,1.35274 -18.54545,3.22181 -19.43918,-0.27952 0.47799,-4.46296 7.24557,-6.35737 9.92682,-9.51209 m 25.60657,3.28954 c -0.0544,8.72758 0.20306,17.19917 0.20306,25.29088 m -102.95282,-60.73213 c 12.31563,0.73562 28.75327,3.77931 36.51029,10.64605 5.93529,4.85717 17.26892,27.38173 13.29492,35.147 -0.18084,0.33224 -0.67036,1.06845 -1.49401,2.25411 -12.69559,11.76856 -39.22634,0.96877 -48.27048,-8.56572 -6.22262,-6.47109 -16.77299,-30.42712 -10.79414,-36.90284 2.8165,-2.84125 6.70627,-2.4288 10.75342,-2.5786 m 180.15935,22.03119 c -7.61676,9.09218 -15.30955,16.05367 -22.64843,23.04692 -2.35148,-3.60693 -2.06315,-6.83205 -1.56592,-10.87455 1.49395,-8.42969 3.54847,-14.7329 9.34386,-20.24533 7.20464,-5.67773 21.37896,-11.73042 28.78129,-8.31337 5.63966,6.07541 0.77211,21.93876 -2.0792,27.65703 -5.15568,9.5368 -20.43757,16.55391 -29.86465,15.71046 -0.8737,-0.12482 -2.60307,-1.7393 -4.05744,-1.90296 -2.18078,0.20965 -3.92051,2.71439 -4.88249,3.77477 -1.95702,2.16263 -8.23254,9.05581 -10.89652,11.72155 m -134.62571,-47.46897 c 5.4585,5.22275 52.85589,42.28835 58.1568,46.88611 m 71.2043,51.075603 c 1.08018,-0.481475 2.62381,-0.765503 4.9591,-2.487672 10.18391,-8.411605 21.16956,-17.683278 30.20548,-25.199496 2.76899,-2.304627 13.08169,-4.729633 16.22981,-6.142073 2.00708,-0.900286 3.84825,-1.352474 5.86074,-1.326789 7.4725,0.09374 5.77646,5.972139 5.17643,13.967115 -0.43821,5.83865 -3.95601,9.148651 -7.88138,13.074004 -6.24262,6.242629 -12.24629,12.697132 -18.48392,18.934768 -8.56258,8.562588 -17.23517,17.029148 -25.69044,25.697208 -2.62068,2.68603 -5.23414,5.9437176 -8.12169,8.2866776 -1.4503,1.1766576 -2.73335,2.0426981 -4.50827,2.8429186 -7.21053,3.25001986 -17.8857,1.4935932 -25.69718,1.4935932 -19.55649,0 -40.04978,-1.7753618 -59.5093,0.076646 -2.49761,0.2375874 -5.00016,0.522962 -7.21326,1.46924919 -8.34634,3.87400741 -13.13942,13.06606641 -18.19069,19.64302541 -1.53545,1.980037 -2.48097,3.509247 -4.80154,4.685456 -4.00062,2.027824 -9.21548,0.653251 -11.72396,-3.334775 -2.70085,-4.293685 -3.71991,-10.8947083 -5.14802,-15.7771764 -2.37955,-8.1351891 -4.91077,-16.2266516 -7.34644,-24.3447076 -1.92576,-6.418908 -4.03727,-12.738163 -1.83048,-19.385623 6.77378,-14.837058 31.36565,-26.398749 44.53285,-28.655521 8.50892,-1.370078 17.52456,-1.630657 25.69718,1.351585 4.74406,1.731175 8.40253,5.974375 13.52484,6.488766 12.21879,1.227602 25.13368,0.07692 37.41875,0.07692 9.1527,0.623914 18.07132,-0.04438 22.0085,9.093194 3.31944,13.786252 -13.78348,17.966897 -21.55761,17.956485 h -39.67284" />
  </g>
</svg>
