<?xml version="1.0" encoding="UTF-8" standalone="no"?>
<svg
   xmlns="http://www.w3.org/2000/svg"
   width="141.46924mm"
   height="180.56129mm"
   viewBox="0 0 141.46924 180.56129"
   version="1.1">
  <title>joint-hollow</title>
  <g>
    <path
       style="fill:#030303;stroke:none;stroke-width:0.352778"
       d="m 114.9811,0.12393458 c -2.82046,0.63833 -3.85268,3.10865002 -5.02602,5.45526002 -2.49732,4.9941404 -4.11163,9.6416704 -2.13537,15.1694494 0.91193,2.550689 3.65584,4.7105 3.90596,7.408333 0.39758,4.2926 -3.39443,8.405989 -2.89772,12.7 0.34325,2.967214 3.11291,5.373864 6.15315,4.746977 3.54295,-0.730602 4.28096,-3.843161 5.14315,-6.863644 1.5374,-5.386317 3.31505,-10.325206 1.31304,-15.875 -0.89994,-2.495197 -3.77966,-4.731035 -3.88303,-7.408335 -0.15063,-3.89678 4.28026,-6.8135504 3.70029,-10.9361104 -0.41557,-2.95557 -3.32423,-5.06440002 -6.27345,-4.39693002 M 134.38388,13.872195 c -2.97498,0.4415 -4.17336,3.05512 -5.3788,5.465338 -2.47791,4.954975 -4.09223,9.696026 -2.13537,15.169444 0.94545,2.644422 3.78954,4.913489 3.93524,7.761111 0.22084,4.318705 -3.11679,8.275814 -2.73791,12.7 0.24236,2.828572 2.80458,4.797425 5.61128,4.515555 3.42724,-0.343958 4.52438,-3.40995 5.34106,-6.279444 1.47426,-5.177014 3.60997,-10.5029 1.68275,-15.875 -0.94791,-2.641882 -4.0453,-5.298616 -4.07,-8.113889 -0.0332,-3.795536 4.07353,-6.647286 3.67842,-10.583333 -0.29069,-2.896762 -2.99615,-5.194652 -5.92667,-4.759782 M 102.2811,51.251221 c -6.491109,1.147233 -10.673999,6.125986 -14.876639,10.772422 l -13.75833,15.169443 c -16.3516,18.103498 -32.71591,36.195004 -49.03576,54.327774 -7.27816,8.08673 -16.8007599,16.11807 -22.4939199,25.4 -6.43915,10.49796 2.76765,24.44256 14.7924299,23.60436 5.62751,-0.39193 9.46115,-4.07176 13.40556,-7.69902 5.12021,-4.70888 10.26936,-9.43081 15.52222,-13.99187 18.17405,-15.78046 35.73109,-32.31832 53.622219,-48.42051 6.2544,-5.62893 12.53561,-11.231388 18.69722,-16.961205 3.06635,-2.851504 6.63963,-5.58024 8.8452,-9.203973 6.0519,-9.942689 -0.054,-18.019888 -7.08131,-25.047221 -4.95159,-4.951589 -10.13601,-9.276644 -17.63889,-7.9502 m 1.41111,10.558639 c 4.75298,-1.061509 8.38518,4.361039 11.28889,7.269339 1.34832,1.350433 2.94922,2.723444 3.57928,4.58611 1.03964,3.074458 -1.12536,7.374466 -4.28483,8.379177 -1.84609,0.58667 -4.36916,-2.252839 -5.64445,-3.304469 -3.13231,-2.582686 -9.02441,-7.339188 -10.14659,-11.424707 -0.63183,-2.2987 3.29529,-5.078589 5.2077,-5.50545 M 90.639441,74.723642 c 4.66301,5.341408 9.064619,11.002433 15.169439,14.816666 -2.09056,4.483101 -8.29381,8.40846 -11.994439,11.641672 h -0.35278 c -5.41549,-4.129268 -12.93142,-7.21819 -19.75556,-7.761115 l 6.29003,-7.408334 10.64331,-11.288889 m -5.29167,33.513888 c -2.21333,4.54272 -8.90623,8.75524 -12.7,12.09499 -6.29109,5.53896 -12.54936,11.16682 -18.69722,16.86419 -3.41136,3.16124 -6.9021,7.16174 -10.93611,9.4936 -1.30352,-4.56001 -4.39738,-10.24502 -3.40219,-15.16945 0.35736,-1.76741 2.21756,-3.32387 3.39337,-4.58611 2.37948,-2.55376 4.66019,-5.20029 7.03297,-7.76111 4.17372,-4.50391 8.73267,-12.2308 14.14251,-15.17368 1.94628,-1.05868 4.27249,-0.62935 6.35,-0.4071 5.219,0.5588 10.25314,1.98155 14.81667,4.64467 m -55.03333,33.16111 c 0.87136,4.2104 2.43275,8.82721 4.93888,12.34722 v 0.35278 c -4.3374,4.15149 -8.89881,8.1273 -13.40555,12.09499 -1.90041,1.67322 -3.86009,4.12856 -6.70278,3.65478 -3.72046,-0.62019 -5.6399999,-4.87434 -3.57921,-7.98866 2.45995,-3.71757 6.17777,-6.92467 9.16368,-10.23055 3.02013,-3.34363 5.90691,-7.61789 9.58498,-10.23056 z"
       />
  </g>
</svg>
