<?xml version="1.0" encoding="UTF-8" standalone="no"?>
<svg
   xmlns="http://www.w3.org/2000/svg"
   width="89.271873mm"
   height="125.22151mm"
   viewBox="0 0 89.271873 125.22151"
   version="1.1">
  <title>sticky-hollow</title>
  <g transform="translate(114.13943,144.6462)">
    <path
       style="fill:#030303;stroke:none;stroke-width:1.33333"
       d="M 241.69531 0 C 240.32101 0.0059365157 238.92477 0.15980974 237.52344 0.4765625 C 226.53412 2.9605436 223.10465 11.949613 218.52734 21.103516 C 209.054 40.051119 202.94904 57.437878 210.45703 78.4375 C 213.98904 88.318017 224.981 97.105091 225.26367 107.77148 C 225.68101 123.56934 212.45668 138.5735 214.08203 154.4375 C 215.23267 165.67082 226.24079 174.86057 237.52344 172.39258 C 250.51677 169.54856 253.17519 158.88881 256.64453 147.77148 C 263.00321 127.39722 269.50514 107.45579 261.92383 86.4375 C 258.52116 77.004442 247.86659 68.553519 247.28125 58.4375 C 246.43059 43.766319 263.4237 32.665267 261.23438 17.103516 C 259.84255 7.2011723 251.31546 -0.04155561 241.69531 0 z M 313.90234 52.257812 C 312.89274 52.235204 311.87372 52.296151 310.85547 52.447266 C 299.61144 54.115927 295.08334 63.994023 290.52734 73.103516 C 281.14198 91.871629 275.1124 109.70989 282.45508 130.4375 C 285.94309 140.28551 296.98633 149.29815 297.26367 159.77148 C 297.68369 175.6395 284.83959 190.57084 286.04492 206.4375 C 286.89293 217.58416 297.12012 226.10223 308.18945 224.85156 C 321.81348 223.3129 325.45452 211.05819 328.75586 199.77148 C 334.73987 179.31551 341.77547 159.50549 333.91016 138.4375 C 330.43016 129.1139 319.44286 120.60084 319.35352 110.4375 C 319.22804 96.091396 334.46059 85.314439 333.36328 70.4375 C 332.63224 60.50645 323.66186 52.476359 313.90234 52.257812 z M 210.4707 185.99805 C 202.59087 185.96738 194.67998 187.82118 187.01758 191.56055 C 178.72386 195.60804 156.25954 218.35384 110.41406 269.12109 C 2.8754219 388.20458 5.7087259 384.7974 1.9414062 399.45117 C -0.6326032 409.46281 -0.64624392 417.51853 1.8925781 427.26562 C 4.9124584 438.85976 8.7601442 445.30509 18.429688 454.97461 C 27.903829 464.44875 34.534872 468.47478 45.566406 471.44531 L 45.566406 471.44336 C 59.985716 475.32613 76.182215 472.96276 88.820312 465.12891 C 92.62709 462.76924 118.39118 440.43724 146.07422 415.50391 C 269.1336 304.6677 277.03437 297.17366 281.82617 286.70703 C 289.29429 270.39421 289.32939 256.69189 281.94336 240.55859 C 277.45551 230.75589 244.07242 196.94958 233.73828 191.74219 C 226.20005 187.94369 218.35053 186.02871 210.4707 185.99805 z M 210.00391 225.50391 C 214.54202 225.50391 216.30405 226.8088 230.25977 240.50391 C 251.43929 261.28785 252.0441 263.31579 240.90039 276.25586 C 237.78338 279.87534 234.89951 282.83753 234.49219 282.83789 C 230.87552 282.84109 195.76818 248.27026 192.82227 241.80469 C 191.47713 238.85248 191.95686 237.97868 198.18945 232.0332 C 203.87628 226.60835 205.87394 225.50391 210.00391 225.50391 z M 162.80273 272.05664 C 164.9329 272.02924 168.73434 275.78513 183.17188 290.22266 L 202.71875 309.77148 L 186.97656 324.76953 C 178.31763 333.01855 164.3478 345.55907 155.93359 352.63672 C 147.51934 359.71437 140.21171 365.50391 139.69531 365.50391 C 137.32733 365.50391 129.92215 340.61905 128.58594 328.17188 C 128.15295 324.13854 127.51493 318.59255 127.16797 315.84766 C 126.56245 311.0573 127.17115 310.14598 142.35352 293.17969 C 151.05308 283.45791 159.39749 274.41808 160.89648 273.08984 C 161.56745 272.49531 162.09268 272.06577 162.80273 272.05664 z M 90.9375 352.51758 C 91.598124 352.73779 93.79107 357.99963 95.810547 364.21094 C 97.830024 370.42225 101.37694 379.63801 103.69141 384.68945 C 106.00591 389.74088 107.89844 394.28939 107.89844 394.79883 C 107.89844 396.30319 70.911881 429.48172 66.904297 431.57227 C 62.134873 434.0602 57.624841 433.9652 52.138672 431.26172 C 42.760303 426.64025 37.655556 414.94304 41.582031 407.07227 C 44.136236 401.95223 89.341065 351.98543 90.9375 352.51758 z "
       transform="matrix(0.26458333,0,0,0.26458333,-114.13943,-144.6462)" />
  </g>
</svg>
