<?xml version="1.0" encoding="UTF-8" standalone="no"?>
<svg
   xmlns="http://www.w3.org/2000/svg"
   width="24mm"
   height="24mm"
   viewBox="0 0 24 24"
   version="1.1">
  <g
     id="layer1"
     transform="translate(-49.208863,-212.49317)">
    <g
       id="g1515"
       transform="matrix(0.94668928,0,0,0.94668928,2.84744,12.560767)">
      <path
         style="fill:#000000;stroke-width:0.177601"
         d="M 79.855469,0.01367188 C 79.714801,0.03106176 79.567644,0.06446088 79.404297,0.10546875 77.042262,0.84761678 74.271449,3.3569675 71.945312,4.4199219 69.117047,5.34704 66.28725,6.2740538 63.458984,7.2011719 L 42.929688,27.697266 46.732422,31.5 C 53.287458,24.944465 59.841448,18.387557 66.396484,11.832031 l 3.908204,-1.283203 c 2.29254,-0.7551117 5.935399,-2.2795719 9.267578,-4.5351561 l 2.667968,2.6679687 2.667969,2.6660154 c -2.154183,3.579137 -3.16818,5.027307 -4.535156,9.300782 l -1.259766,3.857421 C 72.547343,31.065043 65.981954,37.6244 59.416016,44.183594 l 3.808593,3.808594 c 6.83199,-6.84348 13.664103,-13.687764 20.496094,-20.53125 0.927107,-2.828259 1.85414,-5.656117 2.78125,-8.484376 1.687298,-2.807168 3.012572,-4.823822 4.339844,-7.658203 C 91.039493,10.100104 90.739525,9.7091658 85.880859,4.8691406 81.547561,0.55256582 80.840141,-0.10805733 79.855469,0.01367188 Z M 54.310547,33.769531 c -0.269318,0.0195 -0.547186,0.07948 -0.826172,0.185547 -0.231244,0.08792 -1.223025,0.969932 -2.296875,2 l 3.785156,3.785156 c 1.023698,-1.070749 1.904633,-2.069329 1.994141,-2.304687 0.742378,-1.952603 -0.771028,-3.802487 -2.65625,-3.666016 z M 33.535156,37.076172 11.5,59.074219 C 7.1536718,64.53197 3.9830454,68.3389 0.16210938,73.681641 5.4379921e-6,74.126945 -0.04236075,74.608516 0.04101562,75.066406 c 0.11454993,0.629178 0.8865187,1.46445 7.44140628,8.046875 4.0224681,4.03937 7.5546291,7.457751 7.8476561,7.595703 0.721988,0.340196 1.949756,0.200939 2.636719,-0.298828 4.729292,-3.525052 9.193857,-7.403374 13.878906,-10.986328 7.333183,-7.345525 14.666816,-14.691592 22,-22.037109 l -3.820312,-3.820313 c -2.862502,2.85956 -5.725389,5.718568 -8.587891,8.578125 -4.310706,0.06274 -8.622884,0.126335 -12.933594,0.189453 l 0.244141,-12.849609 c 2.865752,-2.865967 5.731903,-5.731686 8.597656,-8.597656 z M 40.462891,47.6875 c -0.591517,0.01592 -1.130478,0.309991 -1.734375,0.910156 -0.659176,0.655144 -0.75408,0.8497 -0.753907,1.529297 3.59e-4,0.998136 0.460722,1.907657 1.22461,2.417969 1.250872,0.835653 3.071983,0.287812 3.757812,-1.128906 0.640993,-1.32412 0.04848,-2.843363 -1.347656,-3.460938 C 41.190206,47.76965 40.8178,47.677949 40.462891,47.6875 Z m -17.140625,7.214844 c -0.09691,4.110198 -0.244992,6.964367 -0.07813,10.84375 0.08955,0.348245 0.355765,0.815251 0.591797,1.037109 1.539314,1.405493 9.39767,0.584382 12.273437,0.689453 l -4.173828,4.205078 c -3.704394,3.732095 -4.782013,4.688437 -9.589844,8.509766 -2.979265,2.36795 -5.503598,4.355984 -5.607422,4.417969 -0.103827,0.06195 -2.524576,-2.22452 -5.380859,-5.082031 L 6.1640625,74.326172 C 11.295882,67.872553 13.374758,64.972894 19.183594,59.03125 Z"
         transform="matrix(0.26458333,0,0,0.26458333,49.208863,212.49317)" />
      <circle
         style="fill:none;fill-rule:evenodd;stroke:#000000;stroke-width:1.54735;stroke-linecap:round;paint-order:markers stroke fill"
         d="m 50.471293,226.8896 a 11.655195,11.655195 0 0 1 3.210074,-11.7674 11.655195,11.655195 0 0 1 11.946587,-2.46076" />
      <circle
         style="fill:none;fill-rule:evenodd;stroke:#000000;stroke-width:1.547;stroke-linecap:round;stroke-miterlimit:4;stroke-dasharray:none;paint-order:markers stroke fill"
         d="m 72.915339,220.59895 a 11.655195,11.655195 0 0 1 -2.885945,11.13081 11.655195,11.655195 0 0 1 -11.033824,3.23701" />
      <path
         style="fill:none;stroke:#000000;stroke-width:1.547;stroke-linecap:round;stroke-linejoin:miter;stroke-miterlimit:4;stroke-dasharray:none;stroke-opacity:1"
         d="m 51.800629,213.54814 19.973211,19.9732"
         />
    </g>
  </g>
</svg>
