<?xml version="1.0" encoding="UTF-8" standalone="no"?>
<svg
   xmlns="http://www.w3.org/2000/svg"
   width="24mm"
   height="24mm"
   viewBox="0 0 24 23.999999"
   version="1.1">
  <g
     transform="translate(-288.19269,-144.65948)">
    <g
       id="g865">
      <g
         id="g870"
         transform="matrix(0.85735434,0,0,0.85735434,41.109436,21.015449)">
        <path
           style="fill:#000000;stroke-width:0.0469903"
           d="m 293.65766,169.96937 c -0.0775,-0.0365 -1.01174,-0.94081 -2.07602,-2.00956 -1.73431,-1.7416 -1.93856,-1.96245 -1.96886,-2.12892 -0.0221,-0.12115 -0.0109,-0.24854 0.0319,-0.36636 1.01095,-1.4136 1.84988,-2.42097 2.99985,-3.865 4.5825,-4.57501 9.16499,-9.15002 13.74749,-13.72503 0.74832,-0.2453 1.49663,-0.49059 2.24494,-0.73589 0.61546,-0.28124 1.34895,-0.94515 1.97391,-1.14151 0.34575,-0.0868 0.40315,-0.0445 1.71346,1.26075 1.28552,1.28059 1.36485,1.38371 1.31254,1.70604 -0.35117,0.74993 -0.70178,1.28369 -1.14821,2.02642 -0.2453,0.74831 -0.4906,1.49662 -0.73589,2.24493 -4.57502,4.58271 -9.15003,9.16541 -13.72504,13.74812 -1.23958,0.94799 -2.42082,1.97419 -3.67211,2.90686 -0.18176,0.13223 -0.50697,0.16911 -0.698,0.0791 z m 1.85612,-2.78377 c 1.27208,-1.01106 1.55737,-1.26421 2.53749,-2.25166 l 1.10427,-1.11252 c -0.76088,-0.0278 -2.84004,0.18939 -3.24732,-0.18248 -0.0624,-0.0587 -0.13294,-0.18207 -0.15663,-0.27421 -0.0442,-1.02642 -0.005,-1.78145 0.0206,-2.86894 l -1.09504,1.09226 c -1.53693,1.57206 -2.08681,2.33948 -3.4446,4.047 l 1.37405,1.37464 c 0.75572,0.75605 1.39652,1.36123 1.42399,1.34484 0.0275,-0.0164 0.69489,-0.54241 1.48315,-1.16893 z m 15.02017,-14.73226 0.33295,-1.02052 c 0.36168,-1.13069 0.62993,-1.51396 1.19989,-2.46094 l -0.70566,-0.70566 -0.70567,-0.70566 c -0.88164,0.59679 -1.84595,0.99991 -2.45252,1.1997 l -1.03373,0.33983 c -3.3204,3.32065 -6.64081,6.64131 -9.96121,9.96196 l -0.0644,3.39977 c 1.14054,-0.0167 2.28109,-0.0334 3.42163,-0.05 3.3229,-3.31948 6.64579,-6.63897 9.96869,-9.95845 z m -10.56088,7.41836 c -0.20211,-0.13502 -0.32396,-0.37553 -0.32406,-0.63962 -4e-5,-0.17981 0.0252,-0.23103 0.19964,-0.40437 0.25565,-0.25407 0.4667,-0.30125 0.76245,-0.17042 0.36939,0.1634 0.52587,0.56574 0.35627,0.91608 -0.18146,0.37484 -0.66334,0.51943 -0.9943,0.29833 z m 2.70442,-2.5439 c -0.19318,-0.0841 -0.38653,-0.32323 -0.42432,-0.5247 -0.0583,-0.31056 0.0702,-0.5144 0.74516,-1.18279 0.34271,-0.33936 0.68224,-0.63949 0.75449,-0.66696 0.59052,-0.22452 1.1457,0.33048 0.92122,0.92091 -0.0274,0.0721 -0.31818,0.40379 -0.64612,0.73702 -0.74161,0.75358 -0.97772,0.87886 -1.35043,0.71652 z"
           />
        <path
           style="fill:none;stroke:#000000;stroke-width:1.565;stroke-linecap:round;stroke-linejoin:miter;stroke-miterlimit:4;stroke-dasharray:none;stroke-opacity:1"
           d="m 290.48084,160.73026 c -2.53907,-1.93771 -1.87089,-6.28084 1.73725,-7.81763 -0.21191,-4.77941 2.82114,-6.88555 7.17336,-5.3282 0.84767,-2.47224 3.95174,-2.85693 5.45513,-0.88581"
           />
        <path
           style="fill:none;stroke:#000000;stroke-width:1.66538;stroke-linecap:round;stroke-linejoin:miter;stroke-miterlimit:4;stroke-dasharray:none;stroke-opacity:1"
           d="m 313.66347,154.25674 c 2.60171,1.82811 2.07277,5.339 -0.71005,6.50046 1.97349,4.28275 -1.05268,7.219 -5.56729,6.01347 -0.54473,4.47626 -4.36197,3.59008 -5.79854,2.88849 -2.04931,2.15094 -4.07141,1.04388 -4.47136,0.51953"
           />
      </g>
    </g>
  </g>
</svg>
