<?xml version="1.0" encoding="UTF-8" standalone="no"?>
<svg
   xmlns="http://www.w3.org/2000/svg"
   width="24mm"
   height="24mm"
   viewBox="0 0 24.000001 24.000001"
   version="1.1">
  <g
     transform="translate(0.23117972,3.8903672)">
    <path
       style="fill:#000000;stroke-width:0.0468193"
       d="M 3.8413581,20.028638 C 3.7641068,19.993663 2.8332987,19.0938 1.7728942,18.028943 c -1.727999,-1.735256 -1.93150076,-1.955301 -1.96169813,-2.121167 -0.0219761,-0.120713 -0.0109181,-0.247639 0.0318235,-0.365027 0.0366244,-0.100604 0.71010262,-0.989351 1.52727193,-2.015445 1.4464071,-1.816209 1.4779758,-1.851685 3.0063236,-3.378436 0.849513,-0.848624 1.5518527,-1.5333565 1.5607553,-1.5216279 0.00891,0.011732 -0.00768,1.0642265 -0.036859,2.3388829 -0.029175,1.274655 -0.043276,2.359695 -0.031334,2.411195 0.038556,0.166291 0.2507576,0.405992 0.4246619,0.479695 0.1478299,0.06265 0.4779217,0.06827 2.5923019,0.04414 1.3325938,-0.0152 2.4228988,-0.01276 2.4228988,0.0055 0,0.01818 -0.721603,0.752813 -1.6035619,1.632495 -1.5851697,1.581077 -1.6239671,1.615635 -3.3826961,3.01292 -0.9785238,0.777422 -1.8469321,1.442835 -1.9297931,1.478694 -0.187482,0.08113 -0.3693811,0.08046 -0.5516324,-0.0021 z M 7.3907759,7.134678 C 10.436985,4.0954515 13.483193,1.0562239 16.5294,-1.9830038 c 0.745586,-0.2444845 1.491175,-0.4889685 2.236762,-0.7334526 0.584683,-0.2591216 1.43002,-1.0090381 2.019043,-1.1440379 0.321158,-0.052117 0.423896,0.026922 1.699829,1.3077672 1.30053,1.3055362 1.342614,1.3627324 1.256153,1.70722488 -0.367591,0.71829334 -0.70053,1.23998386 -1.137349,1.96672092 -0.244473,0.745587 -0.488943,1.4911747 -0.733413,2.2367623 -3.028857,3.0321359 -6.057715,6.0642706 -9.086573,9.096405 -1.838599,0.01752 -3.6771986,0.03505 -5.5157979,0.05257 0.050278,-1.832245 0.090954,-3.809279 0.1227218,-5.372276 z m 3.4305551,2.866663 C 10.976422,9.927747 11.126855,9.7344171 11.189081,9.52873 11.240751,9.3578958 11.125681,9.0378622 10.954504,8.8764298 10.522981,8.4694529 9.8104901,8.7830868 9.8109997,9.3797923 9.8115306,9.9019687 10.342401,10.228611 10.821331,10.001341 Z m 2.584743,-2.5889818 c 0.235704,-0.1209452 1.400191,-1.3126821 1.440811,-1.4745286 0.01758,-0.070074 0.02113,-0.2235862 0.0079,-0.3411374 -0.0459,-0.4072035 -0.469196,-0.6656338 -0.909335,-0.5551661 -0.164697,0.041337 -1.344544,1.1970314 -1.469869,1.43978 -0.114857,0.2224714 -0.113264,0.3800727 0.0064,0.6271319 0.06856,0.1416295 0.152232,0.2261698 0.292621,0.2956617 0.244089,0.1208231 0.408,0.1229661 0.631549,0.00827 z"
       />
  </g>
</svg>
