<?xml version="1.0" encoding="UTF-8" standalone="no"?>
<svg
   xmlns="http://www.w3.org/2000/svg"
   width="24mm"
   height="24mm"
   viewBox="0 0 23.999999 24.000001"
   version="1.1">
  <g transform="translate(-13.580694,-35.421203)">
    <path
       style="fill:#000000;stroke-width:0.0469903"
       d="m 17.636636,59.421203 c -0.07753,-0.03651 -1.011744,-0.940814 -2.076022,-2.009561 -1.734313,-1.741596 -1.938558,-1.962446 -1.968866,-2.128917 -0.02206,-0.121154 -0.01095,-0.248544 0.03194,-0.366362 1.010956,-1.413603 1.849885,-2.420972 2.999851,-3.864996 4.582499,-4.575011 9.164998,-9.150022 13.747497,-13.725032 0.748312,-0.245297 1.496623,-0.490594 2.244935,-0.735891 0.615457,-0.281239 1.348953,-0.945151 1.973908,-1.141506 0.345751,-0.08678 0.403155,-0.04454 1.713462,1.260743 1.285522,1.280596 1.364852,1.383708 1.312545,1.706041 -0.351174,0.749931 -0.701786,1.283687 -1.148217,2.026418 -0.245298,0.748312 -0.490595,1.496624 -0.735892,2.244936 -4.575011,4.582705 -9.150022,9.16541 -13.725033,13.748114 -1.239586,0.947996 -2.420817,1.974196 -3.672109,2.906863 -0.181759,0.132228 -0.506973,0.169105 -0.697999,0.07915 z m 1.856121,-2.783773 c 1.272072,-1.011058 1.557361,-1.264212 2.537482,-2.251655 l 1.104274,-1.112524 c -0.76088,-0.02779 -2.840044,0.189389 -3.247321,-0.182482 -0.06245,-0.05867 -0.132935,-0.182061 -0.156629,-0.274201 -0.04415,-1.026429 -0.005,-1.781455 0.02064,-2.868949 l -1.095045,1.092264 c -1.536921,1.572061 -2.086803,2.339476 -3.444596,4.047003 l 1.374046,1.374637 c 0.755725,0.756052 1.396522,1.361227 1.423993,1.344836 0.02747,-0.01639 0.69489,-0.542409 1.483154,-1.168929 z m 15.020162,-14.732258 0.332949,-1.02052 c 0.361679,-1.130685 0.629935,-1.513957 1.199896,-2.460934 l -0.705665,-0.705664 -0.705664,-0.705663 c -0.881639,0.596791 -1.845958,0.999913 -2.452526,1.199706 l -1.033728,0.339823 c -3.320402,3.320655 -6.640805,6.64131 -9.961207,9.961965 l -0.06437,3.399767 c 1.140542,-0.01668 2.281084,-0.03336 3.421626,-0.05003 3.322899,-3.319481 6.645797,-6.638964 9.968694,-9.958446 z m -10.560872,7.418361 c -0.202112,-0.13502 -0.323967,-0.375531 -0.324062,-0.639616 -4.6e-5,-0.179811 0.02523,-0.231035 0.199637,-0.40437 0.25565,-0.254074 0.466704,-0.30125 0.762451,-0.170427 0.369394,0.163401 0.525868,0.565741 0.356272,0.91608 -0.181459,0.374844 -0.663338,0.519429 -0.994298,0.298333 z m 2.704417,-2.543904 c -0.193178,-0.08414 -0.386529,-0.323229 -0.424324,-0.524693 -0.05826,-0.310562 0.07015,-0.514398 0.745161,-1.18279 0.342716,-0.339358 0.682238,-0.639492 0.754493,-0.666963 0.59052,-0.224516 1.145701,0.330478 0.92122,0.920908 -0.02742,0.07213 -0.318177,0.403792 -0.646118,0.737026 -0.741612,0.753581 -0.977721,0.878856 -1.350432,0.716512 z"
       />
  </g>
</svg>
